<svg width="135" height="666" viewBox="0 0 135 666" fill="none" xmlns="http://www.w3.org/2000/svg">
<path d="M46.6496 246.469C35.1296 149.829 101.05 58.4691 135.45 24.8691V635.269C18.9696 601.349 3.14438 518.923 34.6496 472.069C84.6772 397.669 58.1696 343.109 46.6496 246.469Z" fill="#36D6AD"/>
<path d="M135.45 0.869141C79.0843 32.8691 10.2843 152.069 21.0496 246.469C31.8149 340.869 68.0557 377.021 21.0496 457.669C-20.9157 529.669 -3.43041 627.749 135.45 664.869M135.45 24.8691C101.05 58.4691 35.1296 149.829 46.6496 246.469C58.1696 343.109 84.6772 397.669 34.6496 472.069C3.14438 518.923 18.9696 601.349 135.45 635.269V24.8691Z" stroke="#36D6AD" stroke-width="2"/>
</svg>
